# xmcd
#
# Track frame offsets: 
#        150
#        44489
#        76507
#        86017
#        104307
#        124628
#        154225
#
# Disc length: 2342 seconds
#
# Revision: 3
# Processed by: cddbd v1.5.2PL0 Copyright (c) Steve Scherf et al.
# Submitted via: ExactAudioCopy v0.95b4
#
DISCID=4a092407
DTITLE=Triana - El Patio
DYEAR=1975
DGENRE=Progressive Rock
TTITLE0=Abre la puerta
TTITLE1=Sé de un lugar
TTITLE2=Todo es de color
TTITLE3=Luminosa mañana
TTITLE4=Diálogo
TTITLE5=En el lago
TTITLE6=Recuerdos de una noche
EXTD=YEAR: 1975
EXTT0=
EXTT1=
EXTT2=
EXTT3=
EXTT4=
EXTT5=
EXTT6=
PLAYORDER=
